<?xml version="1.0" encoding="UTF-8"?>
<svg viewBox="0 0 298 36" version="1.1" xmlns="http://www.w3.org/2000/svg" xmlns:xlink="http://www.w3.org/1999/xlink">
    <g id="Page-1" stroke="none" stroke-width="1" fill="none" fill-rule="evenodd">
        <g transform="translate(-37.000000, -702.000000)" fill="#000000" fill-rule="nonzero">
            <g id="Group" transform="translate(37.000000, 702.000000)">
                <polygon id="Path" points="77.3 15.6 80.5 15.6 80.5 9.7 82.6 9.7 82.6 25 80.9 25 80.9 34.8 89.2 34.8 89.2 25 87.4 25 87.4 9.7 89.4 9.7 89.4 15.6 92.7 15.6 92.7 0.6 77.3 0.6"></polygon>
                <polygon id="Path" points="109.4 15.6 109.6 15.6 109.6 0.6 109.4 0.6 94.2 0.6 94.2 15.6 97.5 15.6 97.5 9.7 99.6 9.7 99.6 25 97.7 25 97.7 34.8 106.1 34.8 106.1 25 104.4 25 104.4 9.7 106.4 9.7 106.4 15.6"></polygon>
                <path d="M121.9,9.7 L120.6,0.6 L116.7,0.6 L113.8,0.6 L112.6,9.7 L110.5,25 L109.4,25 L109.1,25 L109.1,34.8 L109.4,34.8 L116.1,34.8 L116.1,25 L114.5,25 L114.9,21.6 L116.7,21.6 L118.6,21.6 L119,25 L117.4,25 L117.4,34.8 L125.2,34.8 L125.2,25 L123.9,25 L121.9,9.7 Z M116.7,17.4 L115.4,17.4 L116.7,6.4 L116.8,5.9 L118.1,17.4 L116.7,17.4 Z" id="Shape"></path>
                <path d="M26.8,9.7 L25.5,0.6 L21.6,0.6 L18.8,0.6 L17.4,9.7 L15.4,25 L14,25 L14,34.8 L21,34.8 L21,25 L19.4,25 L19.8,21.6 L21.6,21.6 L23.4,21.6 L23.7,25 L22.1,25 L22.1,34.8 L29.9,34.8 L29.9,25 L28.6,25 L26.8,9.7 Z M21.7,17.4 L20.4,17.4 L21.7,6.4 L21.7,5.9 L23,17.4 L21.7,17.4 Z" id="Shape"></path>
                <polygon id="Path" points="32.5 13 36.7 13 36.7 9.4 39.8 9.4 31.7 25 31.7 34.8 45.1 34.8 45.1 20.4 40.7 20.4 40.7 25.5 37.1 25.5 45.4 9.4 45.4 0.6 32.5 0.6"></polygon>
                <path d="M14,15.8 L6.2,15.8 L6.2,21.4 L8.1,21.4 L8.1,22.2 C8.1,24.3 7.7,25.2 6.5,25.2 C5.2,25.2 4.8,24.1 4.8,21.7 L4.8,13 C4.8,10.6 5.1,9.4 6.5,9.4 C7.8,9.4 8.1,10.6 8.1,13 L8.1,14.7 L12.5,14.7 L12.5,0.7 L8.3,0.7 L8.3,2.5 C7.3,1.1 6.1,0.4 4.7,0.4 C1.2,0.3 0,3.1 0,8.6 L0,26.8 C0,32.3 1.3,35.3 5.1,35.3 C6.5,35.3 7.7,34.5 9,33.3 L10.2,34.8 L12.6,34.8 L12.6,21.4 L14,21.4 L14,15.8 Z" id="Path"></path>
                <polygon id="Path" points="47.8 13 51.9 13 51.9 9.4 55 9.4 46.8 25 46.8 34.8 60.3 34.8 60.3 20.4 56 20.4 56 25.5 52.4 25.5 60.7 9.4 60.7 0.6 47.8 0.6"></polygon>
                <polygon id="Path" points="62.2 9.7 64 9.7 64 25 62.2 25 62.2 34.8 76.2 34.8 76.2 20.8 71.5 20.8 71.5 25 68.7 25 68.7 19.6 73 19.6 73 15.8 68.7 15.8 68.7 9.7 71.5 9.7 71.5 14.6 76.2 14.6 76.2 0.6 62.2 0.6"></polygon>
                <polygon id="Path" points="153.3 10.4 155.1 10.4 155.1 25.6 153.3 25.6 153.3 34.8 161.6 34.8 161.6 25.6 159.9 25.6 159.9 10.4 161.6 10.4 161.6 0.6 153.3 0.6"></polygon>
                <path d="M145.2,1.1 C144.4,1 143.4,1 142.3,1 L136.8,1 L136.8,10.8 L138.6,10.8 L138.6,26.1 L136.8,26.1 L136.8,35.2 L142.3,35.2 C143.3,35.2 144.3,35.2 145.2,35.1 C150.2,34.6 151.8,32.4 151.8,26.5 L151.8,9.7 C151.8,3.8 150.2,1.6 145.2,1.1 Z M147,23.3 C147,25.2 146.8,26 145.2,26.1 C145,26.1 144.9,26.2 144.6,26.2 L143.4,26.2 L143.4,10.9 L144.6,10.9 C144.9,10.9 145,10.9 145.2,10.9 C146.8,11.1 147,11.7 147,13.6 L147,23.3 Z" id="Shape"></path>
                <polygon id="Path" points="182.7 19.8 180.8 1 172.1 1 172.1 10.1 173.9 10.1 173.9 25.3 172.1 25.3 172.1 35.1 178.9 35.1 178.9 25.3 177.6 25.3 177.6 6.3 181.4 35.1 183.4 35.1 187.4 6.3 187.4 25.3 186 25.3 186 35.1 193.8 35.1 193.8 25.3 192.1 25.3 192.1 10.1 193.8 10.1 193.8 1 185 1"></polygon>
                <polygon id="Path" points="282.6 10.1 282.6 1 282.3 1 275.8 1 275.8 10.1 277 10.1 274.9 27.1 273.2 10.1 274.5 10.1 274.5 1 267 1 267 10.1 268.6 10.1 271.6 35.1 277.8 35.1 281.1 10.1 282.3 10.1"></polygon>
                <path d="M208.7,10.1 L207.4,1 L203.6,1 L200.7,1 L199.4,10.1 L197.4,25.3 L196,25.3 L196,35.1 L202.9,35.1 L202.9,25.3 L201.4,25.3 L201.7,22 L203.5,22 L205.4,22 L205.7,25.3 L204,25.3 L204,35.1 L211.8,35.1 L211.8,25.3 L210.5,25.3 L208.7,10.1 Z M203.6,17.7 L202.3,17.7 L203.6,6.9 L203.7,6.2 L204.9,17.7 L203.6,17.7 Z" id="Shape"></path>
                <path d="M296.7,25.3 L294.8,10.1 L293.4,1 L289.7,1 L286.8,1 L285.5,10.1 L283.4,25.3 L282.4,25.3 L282.1,25.3 L282.1,35.1 L282.4,35.1 L289,35.1 L289,25.3 L287.5,25.3 L287.8,22 L289.6,22 L291.4,22 L291.7,25.3 L290.1,25.3 L290.1,35.1 L297.9,35.1 L297.9,25.3 L296.7,25.3 Z M289.6,17.7 L288.3,17.7 L289.6,6.8 L289.6,6.2 L290.9,17.7 L289.6,17.7 Z" id="Shape"></path>
                <path d="M258.6,0.6 C253.7,0.6 252.1,3.2 252.1,9 L252.1,27.1 C252.1,32.9 253.8,35.5 258.6,35.5 C263.5,35.5 265.2,32.9 265.2,27.1 L265.2,9 C265.2,3.2 263.4,0.6 258.6,0.6 Z M260.3,22.1 C260.3,24.5 260,25.7 258.5,25.7 C257.1,25.6 256.7,24.5 256.7,22.1 L256.7,13.3 C256.7,10.9 257,9.8 258.5,9.8 C259.9,9.8 260.3,10.9 260.3,13.3 L260.3,22.1 Z" id="Shape"></path>
                <polygon id="Path" points="226 10.1 227.6 10.1 227.6 24.4 222.8 1 215.1 1 215.1 10.1 216.9 10.1 216.9 25.3 215.1 25.3 215.1 35.1 222.1 35.1 222.1 25.3 220.5 25.3 220.5 8.5 226 35.1 231.2 35.1 231.2 10.1 233 10.1 233 1 226 1"></polygon>
                <polygon id="Path" points="234.7 15.9 237.9 15.9 237.9 10.1 240 10.1 240 25.3 238.2 25.3 238.2 35.1 246.5 35.1 246.5 25.3 244.7 25.3 244.7 10.1 246.8 10.1 246.8 15.9 250 15.9 250 1 234.7 1"></polygon>
            </g>
        </g>
    </g>
</svg>